<svg xmlns="http://www.w3.org/2000/svg" id="SvgjsSvg193437" width="4096" height="2624.7278035645186" version="1.1" xmlns:xlink="http://www.w3.org/1999/xlink" xmlns:svgjs="http://svgjs.com/svgjs"><defs id="SvgjsDefs193438"></defs><g id="SvgjsG193439" transform="translate(328, 327.9999999999999) scale(34.4)" opacity="1"><defs id="SvgjsDefs44588"></defs><g id="SvgjsG44589" transform="scale(0.21645021645021645)" opacity="1"><g id="SvgjsG44590" class="ntBg64-KA" transform="translate(144.9878630715224, 0.21609285305562181) scale(14.694604664267716)" light-content="false" non-strokable="false" fill="#1c1c1c"><path d="M6.486-.014a1.628 1.628 0 0 0-1.108 2.778l2.4 2.397 2.399-2.397c.306-.304.478-.719.477-1.15A1.632 1.632 0 0 0 7.938.4a.24.24 0 0 1-.32 0 1.627 1.627 0 0 0-1.133-.414zm2.77.832a.72.72 0 1 1 0 1.439.72.72 0 0 1 0-1.439zm0 .48a.24.24 0 1 0 0 .48.24.24 0 0 0 0-.48zM5.331 3.396a4.482 4.482 0 0 0-1.73.767c.305.616-.084 1.864-.518 3.1-.383 1.09-.562 1.978-.534 2.64a.788.788 0 0 1-.305.659c.23.75.78 1.049 1.626.74a1.529 1.529 0 0 1-.805-1.053.24.24 0 0 1 .472-.084c.105.483.533.828 1.028.83.462.003.871-.299 1.005-.742-.507-.138-.909-.61-.909-.997 0-.528.67-.64 1.199-.64.99 0 1.198.348 1.198.64 0 .386-.402.86-.91.998.133.442.543.744 1.005.741.498 0 .927-.35 1.03-.837a.24.24 0 1 1 .471.091 1.53 1.53 0 0 1-.804 1.053c.844.309 1.4.012 1.63-.75a.79.79 0 0 1-.309-.66c.062-1.459-.757-2.967-1.06-4.384l-.164.163a.24.24 0 0 1-.338 0L5.33 3.396zm-2.345.877a.59.59 0 0 0-.093.008c-.453.071-1.026.385-1.658.907-.43.35-.67.882-.648 1.436.095 2.18.533 3.119.883 3.523a.343.343 0 0 0 .6-.223c-.032-.732.152-1.655.56-2.818.215-.615 1.005-2.833.356-2.833zm6.246.114l-.71.71C8.733 6.54 9.721 8.212 9.65 9.911a.344.344 0 0 0 .601.223c.35-.404.788-1.343.881-3.52a1.754 1.754 0 0 0-.647-1.439 4.87 4.87 0 0 0-1.252-.789zm-4.81 2.551c.396 0 .718.322.718.72s-.322 1.006-.719 1.006-.719-.61-.719-1.006a.72.72 0 0 1 .72-.72zm2.876 0c.397 0 .72.322.72.72s-.323 1.006-.72 1.006-.719-.61-.719-1.006a.72.72 0 0 1 .72-.72zm-2.877.48c-.132 0-.24.107-.24.24s.108.527.24.527.24-.395.24-.527-.107-.24-.24-.24zm2.877 0c-.132 0-.24.107-.24.24s.108.527.24.527.24-.395.24-.527-.108-.24-.24-.24zM5.86 9.096c-.545 0-.705.118-.719.15a.791.791 0 0 0 .72.569.797.797 0 0 0 .719-.56c0-.04-.174-.16-.72-.16zm0 1.673a1.51 1.51 0 0 1-.93.66 1.577 1.577 0 0 0 1.86 0 1.515 1.515 0 0 1-.93-.66z"></path></g><g id="SvgjsG44591" class="text" transform="translate(228.71, 263.832904212688) scale(1)" light-content="false" fill="#1c1c1c"><path d="M-228.71 -61.65L-228.71 0L-219.36 0L-219.36 -18.77L-218.46 -18.77C-217.25 -18.77 -215.97 -18.85 -214.61 -19C-213.25 -19.16 -211.91 -19.48 -210.57 -19.98C-209.24 -20.47 -207.95 -21.2 -206.71 -22.16C-205.47 -23.12 -204.38 -24.41 -203.44 -26.01C-202.5 -27.61 -201.75 -29.58 -201.19 -31.93C-200.62 -34.27 -200.34 -37.09 -200.34 -40.39L-200.34 -42.55C-200.34 -45.59 -200.65 -48.16 -201.26 -50.28C-201.87 -52.4 -202.69 -54.16 -203.7 -55.57C-204.71 -56.97 -205.87 -58.09 -207.18 -58.91C-208.49 -59.72 -209.85 -60.33 -211.26 -60.73C-212.66 -61.12 -214.07 -61.38 -215.48 -61.49C-216.89 -61.59 -218.18 -61.65 -219.36 -61.65ZM-218.89 -25.63L-219.36 -25.63L-219.36 -54.83L-218.89 -54.83C-217.13 -54.83 -215.68 -54.62 -214.52 -54.19C-213.37 -53.77 -212.45 -53.13 -211.76 -52.26C-211.08 -51.4 -210.6 -50.3 -210.34 -48.96C-210.07 -47.63 -209.94 -46.04 -209.94 -44.21L-209.94 -38.66C-209.94 -36.35 -210.09 -34.37 -210.39 -32.72C-210.69 -31.07 -211.19 -29.72 -211.87 -28.68C-212.56 -27.63 -213.48 -26.86 -214.63 -26.37C-215.79 -25.87 -217.21 -25.63 -218.89 -25.63Z M-195.65 -12.49C-195.65 -10.85 -195.42 -9.25 -194.98 -7.69C-194.53 -6.12 -193.76 -4.73 -192.67 -3.5C-191.57 -2.27 -190.11 -1.29 -188.27 -0.54C-186.42 0.2 -184.11 0.58 -181.32 0.58C-179.06 0.58 -177.02 0.25 -175.22 -0.42C-173.41 -1.08 -171.87 -2.02 -170.6 -3.25C-169.32 -4.48 -168.34 -5.97 -167.66 -7.72C-166.97 -9.48 -166.63 -11.45 -166.63 -13.64C-166.63 -16.29 -167.16 -18.8 -168.22 -21.17C-169.27 -23.54 -170.79 -26.01 -172.76 -28.59L-183.63 -41.72C-184.08 -42.33 -184.49 -42.9 -184.85 -43.46C-185.22 -44.01 -185.52 -44.58 -185.78 -45.17C-186.03 -45.76 -186.22 -46.4 -186.35 -47.1C-186.48 -47.8 -186.55 -48.58 -186.55 -49.45C-186.55 -51.08 -186.12 -52.39 -185.25 -53.36C-184.39 -54.34 -183.07 -54.83 -181.32 -54.83C-179.2 -54.83 -177.67 -53.95 -176.73 -52.21C-175.8 -50.47 -175.33 -47.96 -175.33 -44.68L-175.33 -41.76L-168.11 -41.76C-167.84 -43.11 -167.61 -44.34 -167.4 -45.46C-167.2 -46.58 -167.1 -47.8 -167.1 -49.12C-167.1 -50.69 -167.32 -52.25 -167.76 -53.8C-168.21 -55.35 -168.97 -56.75 -170.06 -58C-171.14 -59.25 -172.59 -60.26 -174.41 -61.03C-176.22 -61.8 -178.49 -62.19 -181.21 -62.19C-183.45 -62.19 -185.45 -61.85 -187.22 -61.16C-188.99 -60.48 -190.47 -59.51 -191.68 -58.27C-192.88 -57.03 -193.8 -55.56 -194.44 -53.85C-195.08 -52.14 -195.39 -50.27 -195.39 -48.22C-195.39 -45.67 -194.92 -43.27 -193.99 -41.02C-193.05 -38.77 -191.71 -36.54 -189.98 -34.33L-180.23 -22.74C-179.37 -21.66 -178.66 -20.68 -178.11 -19.8C-177.55 -18.92 -177.11 -18.08 -176.79 -17.29C-176.46 -16.49 -176.23 -15.69 -176.1 -14.89C-175.97 -14.08 -175.9 -13.2 -175.9 -12.24C-175.9 -10.36 -176.37 -8.93 -177.31 -7.96C-178.25 -6.98 -179.61 -6.5 -181.39 -6.5C-182.52 -6.5 -183.48 -6.72 -184.26 -7.16C-185.04 -7.61 -185.67 -8.27 -186.14 -9.15C-186.61 -10.03 -186.94 -11.1 -187.15 -12.38C-187.35 -13.66 -187.45 -15.12 -187.45 -16.78L-187.45 -19.78L-194.71 -19.78C-195.02 -18.48 -195.26 -17.27 -195.41 -16.15C-195.57 -15.03 -195.65 -13.81 -195.65 -12.49Z M-158.76 -61.65L-158.76 0L-149.41 0L-149.41 -61.65Z M-132.09 -61.65L-143.45 0L-133.96 0L-132.34 -11.04L-121.08 -11.04L-119.38 0L-109.92 0L-121.33 -61.65ZM-122.16 -18.08L-131.26 -18.08L-126.89 -48.8L-126.49 -48.8Z M-88.16 -61.65L-88.16 0L-78.81 0L-78.81 -28.48L-67.66 -28.48L-67.66 -35.84L-78.81 -35.84L-78.81 -54.29L-64.59 -54.29L-64.59 -61.65Z M-58.35 -61.65L-58.35 0L-49.18 0L-49.18 -23.06L-45.68 -23.06L-37.48 0L-27.59 0L-37.48 -24.65C-34.86 -25.95 -32.88 -28.07 -31.53 -31.02C-30.18 -33.97 -29.51 -37.79 -29.51 -42.48L-29.51 -44.03C-29.51 -46.83 -29.81 -49.2 -30.41 -51.16C-31.01 -53.12 -31.81 -54.75 -32.81 -56.05C-33.81 -57.35 -34.95 -58.38 -36.24 -59.12C-37.53 -59.87 -38.86 -60.43 -40.24 -60.8C-41.63 -61.17 -43.01 -61.41 -44.4 -61.5C-45.78 -61.6 -47.05 -61.65 -48.2 -61.65ZM-47.77 -29.81L-49.18 -29.81L-49.18 -54.83L-47.77 -54.83C-46.06 -54.83 -44.64 -54.65 -43.51 -54.29C-42.38 -53.92 -41.47 -53.37 -40.79 -52.62C-40.1 -51.88 -39.61 -50.93 -39.32 -49.77C-39.04 -48.62 -38.89 -47.25 -38.89 -45.66L-38.89 -40.79C-38.89 -38.72 -39.05 -36.98 -39.36 -35.57C-39.67 -34.16 -40.18 -33.03 -40.88 -32.18C-41.57 -31.32 -42.49 -30.72 -43.62 -30.35C-44.75 -29.99 -46.13 -29.81 -47.77 -29.81Z M-13.19 -20.54L-13.19 0L-3.84 0L-3.84 -20.54L8.64 -61.65L-0.74 -61.65L-8.21 -32.16L-8.64 -32.16L-16.19 -61.65L-25.61 -61.65Z M10.23 -4.94L10.23 0L37.92 0L37.92 -7.36L20.7 -7.36L39 -56.7L39 -61.65L12.98 -61.65L12.98 -54.29L28.5 -54.29Z M52.72 0.58C54.38 0.58 55.98 0.37 57.53 -0.05C59.09 -0.48 60.47 -1.26 61.68 -2.4C62.9 -3.54 63.87 -5.13 64.59 -7.15C65.31 -9.17 65.67 -11.77 65.67 -14.94L65.67 -61.65L56.32 -61.65L56.22 -13.64C56.22 -12.25 56.13 -11.09 55.96 -10.16C55.8 -9.23 55.55 -8.5 55.24 -7.96C54.93 -7.42 54.55 -7.04 54.1 -6.82C53.66 -6.61 53.16 -6.5 52.61 -6.5C51.93 -6.5 51.36 -6.64 50.89 -6.91C50.42 -7.19 50.04 -7.65 49.74 -8.28C49.44 -8.92 49.21 -9.78 49.07 -10.85C48.93 -11.92 48.85 -13.25 48.85 -14.83L48.96 -22.34L41.49 -22.34C41.15 -20.71 40.9 -19.08 40.73 -17.45C40.56 -15.83 40.48 -14.37 40.48 -13.07C40.48 -11.21 40.68 -9.46 41.09 -7.8C41.5 -6.14 42.18 -4.69 43.13 -3.45C44.08 -2.21 45.34 -1.23 46.9 -0.51C48.47 0.22 50.41 0.58 52.72 0.58Z M76 -61.65L76 0L99.2 0L99.2 -7.36L85.34 -7.36L85.34 -28.48L95.78 -28.48L95.78 -35.84L85.34 -35.84L85.34 -54.29L98.84 -54.29L98.84 -61.65Z M105.95 -61.65L105.95 0L115.12 0L115.12 -23.06L118.62 -23.06L126.82 0L136.71 0L126.82 -24.65C129.44 -25.95 131.42 -28.07 132.77 -31.02C134.12 -33.97 134.79 -37.79 134.79 -42.48L134.79 -44.03C134.79 -46.83 134.49 -49.2 133.89 -51.16C133.29 -53.12 132.49 -54.75 131.49 -56.05C130.49 -57.35 129.35 -58.38 128.06 -59.12C126.77 -59.87 125.44 -60.43 124.05 -60.8C122.67 -61.17 121.29 -61.41 119.9 -61.5C118.52 -61.6 117.25 -61.65 116.1 -61.65ZM116.53 -29.81L115.12 -29.81L115.12 -54.83L116.53 -54.83C118.24 -54.83 119.66 -54.65 120.79 -54.29C121.92 -53.92 122.83 -53.37 123.51 -52.62C124.2 -51.88 124.69 -50.93 124.97 -49.77C125.26 -48.62 125.41 -47.25 125.41 -45.66L125.41 -40.79C125.41 -38.72 125.25 -36.98 124.94 -35.57C124.63 -34.16 124.12 -33.03 123.42 -32.18C122.73 -31.32 121.81 -30.72 120.68 -30.35C119.55 -29.99 118.17 -29.81 116.53 -29.81Z M143.78 -61.65L143.78 0L152.08 0L152.08 -18.12C152.08 -21.25 152.05 -23.95 151.97 -26.22C151.9 -28.5 151.82 -30.49 151.72 -32.2C151.62 -33.9 151.52 -35.39 151.4 -36.65C151.28 -37.92 151.18 -39.09 151.11 -40.17L151.4 -40.17L166.27 0L173.92 0L173.92 -61.65L165.54 -61.65L165.54 -39.16C165.54 -36.78 165.58 -34.64 165.65 -32.74C165.72 -30.84 165.81 -29.13 165.91 -27.63C166 -26.13 166.11 -24.78 166.23 -23.61C166.35 -22.43 166.45 -21.36 166.52 -20.39L166.3 -20.39L151.36 -61.65Z M184.46 -61.65L184.46 0L193.81 0L193.81 -61.65Z M211.13 -61.65L199.76 0L209.25 0L210.88 -11.04L222.14 -11.04L223.84 0L233.29 0L221.89 -61.65ZM221.06 -18.08L211.96 -18.08L216.33 -48.8L216.73 -48.8Z"></path></g></g></g></svg>